<?xml version="1.0" encoding="utf-8"?>
<?xml-stylesheet type="text/xsl" href="rss1.xsl"?>
<rss version="2.0" xmlns:atom="http://www.w3.org/2005/Atom" xmlns:content="http://purl.org/rss/1.0/modules/content/" xmlns:dc="http://purl.org/dc/elements/1.1/" xmlns:media="http://search.yahoo.com/mrss/">
<channel>
 <title>Getty</title>
 <link>http://www.gettyimg.com/</link>
 <atom:link href="http://www.gettyimg.com/" rel="self" type="application/rss+xml" />

 
                <item>
                <title><![CDATA[【Singles (lossless)】FLAC - Sabrina Carpenter- Espresso (2024) | Qobuz Hi-Res 24bit/96.0kHz 3399Kpbs [Explicit]]]></title>
                <link><![CDATA[https://sharemania.us/threads/sabrina-carpenter-espresso-2024-qobuz-hi-res-24bit-96-0khz-3399kpbs-explicit.241957/]]></link>
                <description><![CDATA[<article>
<blockquote class="messageText SelectQuoteContainer ugc baseHtml">
<b><img src="https://a5.mzstatic.com/us/r1000/0/Music211/v4/3f/9d/a2/3f9da280-3d5e-b5d1-9a59-831184c50346/24UMGIM32304.rgb.jpg" class="bbCodeImage LbImage" alt="[​IMG]" data-url="https://a5.mzstatic.com/us/r1000/0/Music211/v4/3f/9d/a2/3f9da280-3d5e-b5d1-9a59-831184c50346/24UMGIM32304.rgb.jpg" style=""></b><br>
<div style="text-align: center"><b>Hi-Res 24Bit-96kHz<br>
<br>
Sabrina Carpenter<br>
Espresso - Single<br>
Released by © Island Records on Apr. 11, 2024<br>
Pop • 1 Track • 02min55s<br>
(Explicit)<br>
<br>
DOWNLOAD<br>
</b>
<div class="bbCodeBlock bbCodeVfcHH HiddenContent">
<div class="attribution type">Hidden Content:</div>
<blockquote>You must reply before you can see the hidden data contained here.</blockquote>
</div></div>
<div class="messageTextEndMarker">&nbsp;</div>
</blockquote>
</article>]]></description>
                <author><![CDATA[onika]]></author>
                </item>

                
                <item>
                <title><![CDATA[【Apple Music】WEB-RiP - Dua Lipa - illusion 'A.M WEB-DL.4K.AAC2.0-fstambuk']]></title>
                <link><![CDATA[https://sharemania.us/threads/dua-lipa-illusion-a-m-web-dl-4k-aac2-0-fstambuk.241954/]]></link>
                <description><![CDATA[<article>
<blockquote class="messageText SelectQuoteContainer ugc baseHtml">
thanks
<div class="messageTextEndMarker">&nbsp;</div>
</blockquote>
</article>]]></description>
                <author><![CDATA[fstambuk]]></author>
                </item>

                
                <item>
                <title><![CDATA[【Requests】[REQ AUD] - Request Three Songs]]></title>
                <link><![CDATA[https://sharemania.us/threads/request-three-songs.241956/]]></link>
                <description><![CDATA[<article>
<blockquote class="messageText SelectQuoteContainer ugc baseHtml">
<div style="text-align: center"><img src="https://i.ibb.co/P5JdfXy/20240411234859.gif" class="bbCodeImage LbImage" alt="[​IMG]" data-url="https://i.ibb.co/P5JdfXy/20240411234859.gif" style=""><br>
​</div>
<div class="ToggleTriggerAnchor bbCodeSpoilerContainer">
<button type="button" class="button bbCodeSpoilerButton ToggleTrigger Tooltip JsOnly" data-target="> .SpoilerTarget"><span>Spoiler: <span class="SpoilerTitle">Apple Music</span></span></button>
<div class="SpoilerTarget bbCodeSpoilerText">
<div class="bbCodeBlock bbCodeCode">
<div class="type">Code:</div>
<pre>Complete name                            : Dua Lipa - illusion 'A.M WEB-DL.4K.AAC2.0-fstambuk'.mp4
Format                                   : Matroska
Format version                           : Version 4
File size                                : 462 MiB
Duration                                 : 3 min 8 s
Overall bit rate                         : 20.5 Mb/s
Frame rate                               : 23.976 FPS
Writing application                      : mkvmerge v71.1.0 ('Fortitude') 64-bit
Writing library                          : libebml v1.4.4 + libmatroska v1.7.1
FileExtension_Invalid                    : mkv mk3d mka mks

Video
ID                                       : 1
Format                                   : HEVC
Format/Info                              : High Efficiency Video Coding
Format profile                           : Main 10@L5@High
Codec ID                                 : V_MPEGH/ISO/HEVC
Duration                                 : 3 min 8 s
Bit rate                                 : 20.3 Mb/s
Width                                    : 3 140 pixels
Height                                   : 2 160 pixels
Display aspect ratio                     : 3:2
Frame rate mode                          : Constant
Frame rate                               : 23.976 (23976/1000) FPS
Color space                              : YUV
Chroma subsampling                       : 4:2:0
Bit depth                                : 10 bits
Bits/(Pixel*Frame)                       : 0.125
Stream size                              : 456 MiB (99%)
Default                                  : Yes
Forced                                   : No
Color range                              : Limited
Color primaries                          : BT.709
Transfer characteristics                 : BT.709
Matrix coefficients                      : BT.709

Audio
ID                                       : 2
Format                                   : AAC LC
Format/Info                              : Advanced Audio Codec Low Complexity
Codec ID                                 : 2 / A_AAC-2
Duration                                 : 3 min 8 s
Bit rate                                 : 265 kb/s
Channel(s)                               : 2 channels
Channel layout                           : L R
Sampling rate                            : 48.0 kHz
Frame rate                               : 46.875 FPS (1024 SPF)
Compression mode                         : Lossy
Stream size                              : 5.87 MiB (1%)
Default                                  : Yes
Forced                                   : No

</pre>
</div><div style="text-align: center">​</div></div>
</div><div style="text-align: center"><br>
<div class="bbCodeBlock bbCodeVfcHH HiddenContent">
<div class="attribution type">Hidden Content:</div>
<blockquote>You must reply before you can see the hidden data contained here.</blockquote>
</div></div>
<div class="messageTextEndMarker">&nbsp;</div>
</blockquote>
</article>]]></description>
                <author><![CDATA[koalablue]]></author>
                </item>

                
                <item>
                <title><![CDATA[【DVD &amp; BLURAY】DVD5 - Beyoncé – I Am... Sasha Fierce (Platinum Edition)]]></title>
                <link><![CDATA[https://sharemania.us/threads/beyonc%C3%A9-%E2%80%93-i-am-sasha-fierce-platinum-edition.241955/]]></link>
                <description><![CDATA[<article>
<blockquote class="messageText SelectQuoteContainer ugc baseHtml">
thanks
<div class="messageTextEndMarker">&nbsp;</div>
</blockquote>
</article>]]></description>
                <author><![CDATA[Kweennayy]]></author>
                </item>

                </channel></rss>